<svg width="2481" height="2073" xmlns="http://www.w3.org/2000/svg"><title>verde pin maps</title><title>Layer 1</title><path clip-rule="evenodd" fill="#ed3237" fill-rule="evenodd" d="M730.94 1839.63c-38.766-190.3-107.116-348.67-189.903-495.44-61.407-108.87-132.544-209.36-198.364-314.94-21.972-35.243-40.934-72.476-62.047-109.053-42.216-73.137-76.444-157.935-74.27-267.932 2.126-107.473 33.21-193.684 78.03-264.172 73.72-115.935 197.202-210.99 362.885-235.97 135.467-20.423 262.476 14.083 352.544 66.75 73.596 43.037 130.596 100.526 173.916 168.28 45.22 70.715 76.36 154.26 78.97 263.23 1.34 55.83-7.8 107.533-20.68 150.42-13.03 43.408-33.99 79.694-52.64 118.453-36.41 75.66-82.05 144.984-127.86 214.344-136.437 206.61-264.496 417.31-320.58 706.03z"/><circle clip-rule="evenodd" fill="#fff" fill-rule="evenodd" cx="729.546" cy="651.047" r="183.333"/></svg>