<?xml version="1.0" encoding="UTF-8"?>
<svg width="2481" height="2073" xmlns="http://www.w3.org/2000/svg" xmlns:svg="http://www.w3.org/2000/svg">
 <title>verde pin maps</title>
 <g>
  <title>Layer 1</title>
  <path id="svg_2" clip-rule="evenodd" fill="#ed3237" fill-rule="evenodd" stroke-miterlimit="10" stroke-width="37" d="m730.94,1839.63c-38.76599,-190.30004 -107.11603,-348.67004 -189.90301,-495.44006c-61.40698,-108.86999 -132.54398,-209.35998 -198.36399,-314.93994c-21.97201,-35.24298 -40.93399,-72.47601 -62.04699,-109.05298c-42.21601,-73.13702 -76.444,-157.935 -74.26901,-267.93201c2.125,-107.47302 33.208,-193.68402 78.02999,-264.17202c73.719,-115.935 197.20102,-210.98899 362.88401,-235.969c135.466,-20.42399 262.47497,14.082 352.54303,66.748c73.59601,43.03801 130.59601,100.527 173.91595,168.28002c45.21997,70.716 76.35999,154.25998 78.96997,263.23196c1.34009,55.83002 -7.79992,107.53204 -20.67993,150.41803c-13.03003,43.409 -33.98999,79.69501 -52.64001,118.45398c-36.41004,75.659 -82.05005,144.98401 -127.85999,214.34399c-136.43701,206.60999 -264.49603,417.31006 -320.58002,706.03003z"/>
  <circle id="svg_4" clip-rule="evenodd" fill="#ffffff" fill-rule="evenodd" cx="729.546" cy="651.047" r="183.333"/>
 </g>
</svg>