<?xml version="1.0" standalone="no"?>
<!DOCTYPE svg PUBLIC "-//W3C//DTD SVG 1.1//EN" "http://www.w3.org/Graphics/SVG/1.1/DTD/svg11.dtd" >
<svg xmlns="http://www.w3.org/2000/svg">
<metadata>Generated by IcoMoon</metadata>
<defs>
<font id="evt" horiz-adv-x="1024">
<font-face units-per-em="1024" ascent="958.9364613880743" descent="-65.06353861192571" />
<missing-glyph horiz-adv-x="1024" />
<glyph unicode="&#x20;" horiz-adv-x="450.43988269794716" d="" />
<glyph unicode="&#xe900;" glyph-name="evt_add" d="M895.967 393.153h-329.119v-329.119h-109.706v329.119h-329.119v109.706h329.119v329.119h109.706v-329.119h329.119v-109.706z" />
<glyph unicode="&#xe901;" glyph-name="evt_book" d="M832.944 768.943v-695.368h-562.714c-44.932 0-81.304 36.373-81.304 81.304s36.373 81.304 81.304 81.304h509.223v639.74h-534.898c-59.908 0-106.979-49.211-106.979-106.979v-641.879c0-59.908 49.211-106.979 106.979-106.979h641.879v748.859h-53.489zM270.23 180.555v0 0c-14.978 0-27.814-12.839-27.814-25.675s12.839-27.814 27.814-27.814v0 0h509.223v53.489h-509.223z" />
<glyph unicode="&#xe902;" glyph-name="evt_bookmark-alt" d="M713.116 808.521h-402.244c-44.932 0-79.164-36.373-79.164-79.164v-639.74l280.287 117.678 280.287-119.818v639.74c0 44.932-36.373 81.304-79.164 81.304zM713.116 207.295l-201.121 87.725-201.121-87.725v519.922h400.104v-519.922z" />
<glyph unicode="&#xe903;" glyph-name="evt_bookmark" d="M711.482 771.579h-397.965c-42.793 0-79.164-36.373-79.164-79.164v-641.879l278.147 119.818 278.147-119.818v639.74c0 44.932-36.373 81.304-79.164 81.304z" />
<glyph unicode="&#xe904;" glyph-name="evt_bookreader" d="M897.618 774.789h-770.254c-47.071 0-85.583-38.514-85.583-85.583v-556.295c0-47.071 38.514-85.583 85.583-85.583h770.254c47.071 0 85.583 38.514 85.583 85.583v556.295c0 47.071-38.514 85.583-85.583 85.583zM217.226 244.17l53.489-74.886 79.164 102.7 106.979-139.075h-320.939l81.304 111.259zM630.167 244.17l53.489-74.886 79.164 102.7 106.979-139.075h-320.939l81.304 111.259z" />
<glyph unicode="&#xe905;" glyph-name="evt_books" d="M233.096 753.397h-166.889c-14.978 0-25.675-12.839-25.675-27.814v-629.041c0-14.978 10.697-27.814 25.675-27.814h164.75c14.978 0 27.814 12.839 27.814 27.814v629.041c2.139 14.978-10.697 27.814-25.675 27.814zM205.281 582.23h-111.259v57.768h111.259v-57.768zM506.965 753.397h-164.75c-14.978 0-27.814-12.839-27.814-27.814v-629.041c0-14.978 12.839-27.814 27.814-27.814h164.75c14.978 0 27.814 12.839 27.814 27.814v629.041c0 14.978-10.697 27.814-27.814 27.814zM481.289 582.23h-111.259v57.768h111.259v-57.768zM697.389 710.605l-147.632-77.025c-12.839-6.418-19.257-23.536-12.839-38.514l248.193-509.223c6.418-14.978 23.536-19.257 36.373-12.839l147.632 77.025c12.839 6.418 19.257 23.536 12.839 38.514l-246.053 509.223c-6.418 12.839-23.536 19.257-38.514 12.839z" />
<glyph unicode="&#xe906;" glyph-name="evt_close" d="M812.033 650.687l-59.908 59.908-239.635-239.635-239.635 239.635-59.908-59.908 239.635-239.635-239.635-239.635 59.908-59.908 239.635 239.635 239.635-239.635 59.908 59.908-239.635 239.635 239.635 239.635z" />
<glyph unicode="&#xe907;" glyph-name="evt_code" d="M401.241 214.22l-194.703 196.843 196.843 196.843-62.049 59.908-256.751-256.751 256.751-256.751 59.908 59.908zM623.759 214.22l196.843 196.843-196.843 196.843 59.908 59.908 256.751-256.751-256.751-256.751-59.908 59.908z" />
<glyph unicode="&#xe908;" glyph-name="evt_collation" d="M407.661 436.734h209.681v-51.35h-209.681v51.35zM407.661 522.318h209.681v-51.35h-209.681v51.35zM407.661 351.149h209.681v-51.35h-209.681v51.35zM897.629 774.789h-770.254c-47.071 0-85.583-38.514-85.583-85.583v-556.295c0-47.071 38.514-85.583 85.583-85.583h770.254c47.071 0 85.583 38.514 85.583 85.583v556.295c0 47.071-38.514 85.583-85.583 85.583zM640.877 132.911h-256.751v556.295h256.751v-556.295zM123.094 436.734h209.681v-51.35h-209.681v51.35zM123.094 522.318h209.681v-51.35h-209.681v51.35zM123.094 351.149h209.681v-51.35h-209.681v51.35zM662.272 436.734h209.681v-51.35h-209.681v51.35zM662.272 522.318h209.681v-51.35h-209.681v51.35zM662.272 351.149h209.681v-51.35h-209.681v51.35zM897.629 132.911h-256.751v556.295h256.751v-556.295z" />
<glyph unicode="&#xe909;" glyph-name="evt_color-legend" d="M911.536 369.347h-342.335v85.583h342.335v-85.583zM911.536 626.099h-342.335v-85.583h342.335v85.583zM569.2 198.18h342.335v85.583h-342.335v-85.583zM269.657 626.099c0 0-156.19-169.028-156.19-273.868 0-85.583 70.607-156.19 156.19-156.19s156.19 70.607 156.19 156.19c0 104.839-156.19 273.868-156.19 273.868z" />
<glyph unicode="&#xe90a;" glyph-name="evt_color-lens" d="M512.499 796.18c-211.82 0-385.127-173.307-385.127-385.127s173.307-385.127 385.127-385.127c36.373 0 64.189 27.814 64.189 64.189 0 17.118-6.418 32.093-17.118 42.793s-17.118 25.675-17.118 42.793c0 36.373 27.814 64.189 64.189 64.189h77.025c117.678 0 213.96 96.282 213.96 213.96 0 188.285-173.307 342.335-385.127 342.335zM277.144 411.052c-36.373 0-64.189 27.814-64.189 64.189s27.814 64.189 64.189 64.189 64.189-27.814 64.189-64.189-27.814-64.189-64.189-64.189zM405.52 582.22c-36.373 0-64.189 27.814-64.189 64.189s27.814 64.189 64.189 64.189 64.189-27.814 64.189-64.189-27.814-64.189-64.189-64.189zM619.48 582.22c-36.373 0-64.189 27.814-64.189 64.189s27.814 64.189 64.189 64.189 64.189-27.814 64.189-64.189-27.814-64.189-64.189-64.189zM747.856 411.052c-36.373 0-64.189 27.814-64.189 64.189s27.814 64.189 64.189 64.189 64.189-27.814 64.189-64.189-27.814-64.189-64.189-64.189z" />
<glyph unicode="&#xe90b;" glyph-name="evt_colors-fill" d="M707.203 391.806l-382.988 382.988-59.908-59.908 102.7-102.7-220.378-220.378c-25.675-25.675-25.675-66.328 0-89.864l235.356-235.356c12.839-12.839 29.954-19.257 44.932-19.257s32.093 6.418 44.932 19.257l235.356 235.356c25.675 23.536 25.675 66.328 0 89.864zM221.515 346.874l205.401 205.401 205.401-205.401h-410.802zM812.043 282.687c0 0-85.583-92.003-85.583-149.771 0-47.071 38.514-85.583 85.583-85.583s85.583 38.514 85.583 85.583c0 57.768-85.583 149.771-85.583 149.771z" />
<glyph unicode="&#xe90c;" glyph-name="evt_copyright" d="M512.51 838.982c-235.356 0-427.919-192.564-427.919-427.919s192.564-427.919 427.919-427.919 427.919 192.564 427.919 427.919-192.564 427.919-427.919 427.919zM512.51 68.728c-188.285 0-342.335 154.050-342.335 342.335s154.050 342.335 342.335 342.335 342.335-154.050 342.335-342.335c0-188.285-154.050-342.335-342.335-342.335zM431.206 460.273c2.139 12.839 6.418 25.675 12.839 36.373s14.978 19.257 25.675 25.675c10.697 6.418 23.536 8.557 38.514 10.697 10.697 0 19.257-2.139 27.814-6.418s17.118-8.557 21.396-14.978c6.418-6.418 10.697-14.978 14.978-23.536s4.279-17.118 6.418-27.814h77.025c0 19.257-4.279 38.514-10.697 55.629s-17.118 32.093-29.954 42.793-27.814 21.396-47.071 27.814c-17.118 6.418-38.514 10.697-59.908 10.697-27.814 0-51.35-4.279-72.746-14.978-21.396-8.557-38.514-23.536-51.35-38.514-12.839-17.118-23.536-36.373-29.954-57.768s-10.697-44.932-10.697-70.607v-10.697c0-25.675 4.279-47.071 10.697-70.607 6.418-21.396 17.118-40.653 29.954-57.768s29.954-29.954 51.35-38.514c21.396-10.697 44.932-14.978 72.746-14.978 19.257 0 38.514 4.279 55.629 10.697s32.093 14.978 47.071 27.814c12.839 10.697 23.536 25.675 32.093 40.653s12.839 32.093 12.839 49.211h-79.164c0-8.557-2.139-17.118-6.418-25.675s-8.557-14.978-14.978-19.257c-6.418-4.279-14.978-10.697-23.536-12.839s-17.118-4.279-25.675-4.279c-14.978 0-27.814 4.279-38.514 10.697s-19.257 14.978-25.675 25.675-10.697 23.536-12.839 38.514c-2.139 12.839-2.139 25.675-2.139 40.653v10.697c0 17.118 0 29.954 4.279 44.932z" />
<glyph unicode="&#xe90d;" glyph-name="evt_drop-down" d="M298.531 518.037l213.96-213.96 213.96 213.96h-427.919z" />
<glyph unicode="&#xe90e;" glyph-name="evt_drop-up" d="M298.531 304.078l213.96 213.96 213.96-213.96h-427.919z" />
<glyph unicode="&#xe90f;" glyph-name="evt_filter" d="M619.485 111.509v0 385.127l235.356 213.96h-684.671l235.356-213.96v-299.544l213.96-85.583z" />
<glyph unicode="&#xe910;" glyph-name="evt_find-in-page" d="M854.835 85.843v496.386l-256.751 256.751h-342.335c-47.071 0-85.583-38.514-85.583-85.583v-684.671c0-47.071 38.514-85.583 85.583-85.583h513.502c19.257 0 36.373 6.418 51.35 17.118l-190.425 190.425c-34.232-23.536-74.886-36.373-117.678-36.373-117.678 0-213.96 96.282-213.96 213.96s96.282 213.96 213.96 213.96 213.96-96.282 213.96-213.96c0-42.793-12.839-83.443-36.373-117.678l164.75-164.75zM384.124 368.27c0-70.607 57.768-128.375 128.375-128.375s128.375 57.768 128.375 128.375c0 70.607-57.768 128.375-128.375 128.375s-128.375-57.768-128.375-128.375z" />
<glyph unicode="&#xe911;" glyph-name="evt_font-size-minu-alt" d="M356.321 346.874h177.586l-87.725 235.356-89.864-235.356zM854.846 838.982h-684.671c-47.071 0-85.583-38.514-85.583-85.583v-684.671c0-47.071 38.514-85.583 85.583-85.583h684.671c47.071 0 85.583 38.514 85.583 85.583v684.671c0 47.071-38.514 85.583-85.583 85.583zM615.212 132.915l-49.211 128.375h-241.775l-47.071-128.375h-89.864l218.239 556.295h79.164l220.378-556.295h-89.864zM871.964 592.928h-295.264v59.908h295.264z" />
<glyph unicode="&#xe912;" glyph-name="evt_font-size-minus" d="M621.609 89.052h102.7l-252.472 644.018h-92.003l-252.472-644.018h102.7l55.629 147.632h278.147l57.768-147.632zM324.206 337.245l102.7 271.728 102.7-273.868h-205.401zM595.934 546.926h301.683v62.049h-301.683z" />
<glyph unicode="&#xe913;" glyph-name="evt_font-size-plus-alt" d="M356.321 346.874h177.586l-87.725 235.356-89.864-235.356zM854.846 838.982h-684.671c-47.071 0-85.583-38.514-85.583-85.583v-684.671c0-47.071 38.514-85.583 85.583-85.583h684.671c47.071 0 85.583 38.514 85.583 85.583v684.671c0 47.071-38.514 85.583-85.583 85.583zM615.212 132.915l-49.211 128.375h-241.775l-47.071-128.375h-89.864l218.239 556.295h79.164l220.378-556.295h-89.864zM871.964 592.928h-117.678v-117.678h-59.908v117.678h-117.678v59.908h117.678v117.678h59.908v-117.678h117.678v-59.908z" />
<glyph unicode="&#xe914;" glyph-name="evt_font-size-plus" d="M621.609 89.052h102.7l-252.472 644.018h-92.003l-252.472-644.018h102.7l55.629 147.632h278.147l57.768-147.632zM324.206 337.245l102.7 271.728 102.7-273.868h-205.401zM775.66 608.973v121.957h-62.049v-121.957h-121.957v-62.049h121.957v-121.957h62.049v121.957h121.957v62.049z" />
<glyph unicode="&#xe915;" glyph-name="evt_font-size-reset" d="M793.851 598.277c0 17.118-12.839 29.954-29.954 29.954s-29.954-12.839-29.954-29.954 12.839-29.954 29.954-29.954 29.954 12.839 29.954 29.954zM763.896 733.070c-74.886 0-134.795-59.908-134.795-134.795h-44.932l59.908-59.908 59.908 59.908h-44.932c0 57.768 47.071 104.839 104.839 104.839s104.839-47.071 104.839-104.839c0-57.768-47.071-104.839-104.839-104.839-23.536 0-42.793 6.418-59.908 19.257l-21.396-21.396c23.536-17.118 51.35-27.814 81.304-27.814 74.886 0 134.795 59.908 134.795 134.795-2.139 72.746-62.049 134.795-134.795 134.795zM620.543 89.052h102.7l-252.472 644.018h-92.003l-252.472-644.018h102.7l55.629 147.632h278.147l57.768-147.632zM323.14 337.245l102.7 271.728 102.7-273.868h-205.401z" />
<glyph unicode="&#xe916;" glyph-name="evt_fragment" d="M769.241 197.103h-513.502v85.583h513.502v-85.583zM769.241 368.27h-513.502v85.583h513.502v-85.583zM769.241 539.438h-513.502v85.583h513.502v-85.583zM127.362-16.857l64.189 64.189 64.189-64.189 64.189 64.189 64.189-64.189 64.189 64.189 64.189-64.189 64.189 64.189 64.189-64.189 64.189 64.189 64.189-64.189 64.189 64.189 64.189-64.189v855.838l-64.189-64.189-64.189 64.189-64.189-64.189-64.189 64.189-64.189-64.189-64.189 64.189-64.189-64.189-64.189 64.189-64.189-64.189-64.189 64.189-64.189-64.189-64.189 64.189v-855.838z" />
<glyph unicode="&#xe917;" glyph-name="evt_heatmap-alt" d="M571.699 872.805c0 0 29.845-105.456 29.845-191.013 0-81.58-53.721-149.229-135.301-149.229s-145.249 65.661-145.249 149.229l1.989 13.929c-79.588-95.506-129.333-218.869-129.333-354.17 0-175.096 143.259-318.355 318.355-318.355s318.355 143.259 318.355 318.355c0 214.889-103.465 405.902-258.663 531.255zM500.070 142.578c-71.629 0-127.342 55.711-127.342 125.353 0 63.672 41.785 109.435 111.425 123.363s143.259 47.753 183.054 103.465c15.919-51.732 23.876-105.456 23.876-161.167 0-105.456-85.558-191.013-191.013-191.013z" />
<glyph unicode="&#xe918;" glyph-name="evt_heatmap" d="M127.362 496.646h213.96v85.583h-213.96v-85.583zM405.51 496.646h213.96v85.583h-213.96v-85.583zM683.658 496.646h213.96v85.583h-213.96v-85.583zM127.362 667.814h85.583v85.583h-85.583v-85.583zM298.531 667.814h85.583v85.583h-85.583v-85.583zM469.698 667.814h85.583v85.583h-85.583v-85.583zM640.866 667.814h85.583v85.583h-85.583v-85.583zM812.033 667.814h85.583v85.583h-85.583v-85.583zM127.362 325.479h342.335v85.583h-342.335v-85.583zM555.282 325.479h342.335v85.583h-342.335v-85.583zM897.618 68.728v171.168h-770.254v-171.168h770.254z" />
<glyph unicode="&#xe919;" glyph-name="evt_help-alt" d="M469.719 154.311h85.583v85.583h-85.583v-85.583zM512.51 838.982c-235.356 0-427.919-192.564-427.919-427.919s192.564-427.919 427.919-427.919 427.919 192.564 427.919 427.919c0 235.356-192.564 427.919-427.919 427.919zM512.51 68.728c-188.285 0-342.335 154.050-342.335 342.335s154.050 342.335 342.335 342.335 342.335-154.050 342.335-342.335-154.050-342.335-342.335-342.335zM512.51 667.814c-94.143 0-171.168-77.025-171.168-171.168h85.583c0 47.071 38.514 85.583 85.583 85.583s85.583-38.514 85.583-85.583c0-85.583-128.375-74.886-128.375-213.96h85.583c0 96.282 128.375 106.979 128.375 213.96 0 94.143-77.025 171.168-171.168 171.168z" />
<glyph unicode="&#xe91a;" glyph-name="evt_help" d="M512.51 838.982c-235.356 0-427.919-192.564-427.919-427.919s192.564-427.919 427.919-427.919 427.919 192.564 427.919 427.919-192.564 427.919-427.919 427.919zM555.303 111.519h-85.583v85.583h85.583v-85.583zM643.026 443.156l-38.514-38.514c-29.954-32.093-49.211-57.768-49.211-121.957h-85.583v21.396c0 47.071 19.257 89.864 49.211 121.957l53.489 53.489c14.978 14.978 25.675 36.373 25.675 59.908 0 47.071-38.514 85.583-85.583 85.583s-85.583-38.514-85.583-85.583h-85.583c0 94.143 77.025 171.168 171.168 171.168s171.168-77.025 171.168-171.168c0-38.514-14.978-72.746-40.653-96.282z" />
<glyph unicode="&#xe91b;" glyph-name="evt_hotspot" d="M880.521 718.1h-261.031v59.908c0 34.232-25.675 59.908-59.908 59.908h-415.082c-34.232 0-59.908-25.675-59.908-59.908v-308.102c0-34.232 25.675-59.908 59.908-59.908h207.54v-25.675h-100.561c-34.232 0-59.908-25.675-59.908-59.908v-280.287c0-34.232 25.675-59.908 59.908-59.908h402.244c34.232 0 59.908 25.675 59.908 59.908v113.4h166.889c34.232 0 59.908 25.675 59.908 59.908v440.757c0 32.093-25.675 59.908-59.908 59.908zM178.734 504.14v239.635h346.614v-25.675h-113.4c-34.232 0-59.908-25.675-59.908-59.908v-154.050h-173.307zM525.349 623.957v-119.818h-81.304v119.818h81.304zM619.491 76.22h-333.777v213.96h66.328v-72.746c0-34.232 25.675-59.908 59.908-59.908h207.54v-81.304zM619.491 249.527h-173.307v40.653h173.307v-40.653zM846.288 249.527h-132.655v72.746c0 34.232-25.675 59.908-59.908 59.908h-207.54v27.814h113.4c34.232 0 59.908 25.675 59.908 59.908v154.050h226.796v-374.429z" />
<glyph unicode="&#xe91c;" glyph-name="evt_imgtxt" d="M555.282 432.454h299.544v-64.189h-299.544v64.189zM555.282 539.434h299.544v-64.189h-299.544v64.189zM555.282 325.474h299.544v-64.189h-299.544v64.189zM897.618 774.789h-770.254c-47.071 0-85.583-38.514-85.583-85.583v-556.295c0-47.071 38.514-85.583 85.583-85.583h770.254c47.071 0 85.583 38.514 85.583 85.583v556.295c0 47.071-38.514 85.583-85.583 85.583zM897.618 132.911h-385.127v556.295h385.127v-556.295zM217.226 244.17l53.489-74.886 79.164 102.7 106.979-139.075h-320.939l81.304 111.259z" />
<glyph unicode="&#xe91d;" glyph-name="evt_info-alt-r" d="M512.499 774.802c-201.121 0-363.732-162.609-363.732-363.732s162.609-363.732 363.732-363.732 363.732 162.609 363.732 363.732-162.609 363.732-363.732 363.732zM548.873 231.344h-72.746v216.1h72.746v-216.1zM548.873 520.189h-72.746v72.746h72.746v-72.746z" />
<glyph unicode="&#xe91e;" glyph-name="evt_info-alt-sq" d="M803.485 774.789h-581.97c-40.653 0-72.746-32.093-72.746-72.746v-581.97c0-40.653 32.093-72.746 72.746-72.746h581.97c40.653 0 72.746 32.093 72.746 72.746v581.97c0 40.653-32.093 72.746-72.746 72.746zM548.873 229.192h-72.746v218.239h72.746v-218.239zM548.873 520.178h-72.746v72.746h72.746v-72.746z" />
<glyph unicode="&#xe91f;" glyph-name="evt_info-alt" d="M469.719 197.103h85.583v256.751h-85.583v-256.751zM512.51 838.982c-235.356 0-427.919-192.564-427.919-427.919s192.564-427.919 427.919-427.919 427.919 192.564 427.919 427.919-192.564 427.919-427.919 427.919zM512.51 68.728c-188.285 0-342.335 154.050-342.335 342.335s154.050 342.335 342.335 342.335 342.335-154.050 342.335-342.335c0-188.285-154.050-342.335-342.335-342.335zM469.719 539.438h85.583v85.583h-85.583v-85.583z" />
<glyph unicode="&#xe920;" glyph-name="evt_info" d="M512.51 838.982c-235.356 0-427.919-192.564-427.919-427.919s192.564-427.919 427.919-427.919 427.919 192.564 427.919 427.919-192.564 427.919-427.919 427.919zM555.303 197.103h-85.583v256.751h85.583v-256.751zM555.303 539.438h-85.583v85.583h85.583v-85.583z" />
<glyph unicode="&#xe921;" glyph-name="evt_link" d="M165.886 411.052c0 72.746 59.908 132.655 132.655 132.655h171.168v81.304h-171.168c-117.678 0-213.96-96.282-213.96-213.96s96.282-213.96 213.96-213.96h171.168v81.304h-171.168c-72.746 0-132.655 59.908-132.655 132.655zM341.332 368.26h342.335v85.583h-342.335v-85.583zM726.459 625.012h-171.168v-81.304h171.168c72.746 0 132.655-59.908 132.655-132.655s-59.908-132.655-132.655-132.655h-171.168v-81.304h171.168c117.678 0 213.96 96.282 213.96 213.96s-96.282 213.96-213.96 213.96z" />
<glyph unicode="&#xe922;" glyph-name="evt_list-alt" d="M148.774 325.469h171.168v171.168h-171.168v-171.168zM148.774 111.509h171.168v171.168h-171.168v-171.168zM148.774 539.428h171.168v171.168h-171.168v-171.168zM362.733 325.469h513.502v171.168h-513.502v-171.168zM362.733 111.509h513.502v171.168h-513.502v-171.168zM362.733 710.595v-171.168h513.502v171.168h-513.502z" />
<glyph unicode="&#xe923;" glyph-name="evt_list" d="M127.372 368.26h85.583v85.583h-85.583v-85.583zM127.372 197.093h85.583v85.583h-85.583v-85.583zM127.372 539.428h85.583v85.583h-85.583v-85.583zM298.541 368.26h599.086v85.583h-599.086v-85.583zM298.541 197.093h599.086v85.583h-599.086v-85.583zM298.541 625.012v-85.583h599.086v85.583h-599.086z" />
<glyph unicode="&#xe924;" glyph-name="evt_mail" d="M854.846 753.397h-684.671c-47.071 0-85.583-38.514-85.583-85.583v-513.502c0-47.071 38.514-85.583 85.583-85.583h684.671c47.071 0 85.583 38.514 85.583 85.583v513.502c0 47.071-38.514 85.583-85.583 85.583zM854.846 582.23l-342.335-213.96-342.335 213.96v85.583l342.335-213.96 342.335 213.96v-85.583z" />
<glyph unicode="&#xe925;" glyph-name="evt_menu" d="M127.362 154.311h770.254v85.583h-770.254v-85.583zM127.362 368.27h770.254v85.583h-770.254v-85.583zM127.362 667.814v-85.583h770.254v85.583h-770.254z" />
<glyph unicode="&#xe926;" glyph-name="evt_more-horiz" d="M255.748 496.635c-47.071 0-85.583-38.514-85.583-85.583s38.514-85.583 85.583-85.583 85.583 38.514 85.583 85.583-38.514 85.583-85.583 85.583zM769.251 496.635c-47.071 0-85.583-38.514-85.583-85.583s38.514-85.583 85.583-85.583 85.583 38.514 85.583 85.583-38.514 85.583-85.583 85.583zM512.499 496.635c-47.071 0-85.583-38.514-85.583-85.583s38.514-85.583 85.583-85.583 85.583 38.514 85.583 85.583-38.514 85.583-85.583 85.583z" />
<glyph unicode="&#xe927;" glyph-name="evt_more-vert" d="M512.499 582.23c47.071 0 85.583 38.514 85.583 85.583s-38.514 85.583-85.583 85.583-85.583-38.514-85.583-85.583 38.514-85.583 85.583-85.583zM512.499 496.646c-47.071 0-85.583-38.514-85.583-85.583s38.514-85.583 85.583-85.583 85.583 38.514 85.583 85.583-38.514 85.583-85.583 85.583zM512.499 239.895c-47.071 0-85.583-38.514-85.583-85.583s38.514-85.583 85.583-85.583 85.583 38.514 85.583 85.583-38.514 85.583-85.583 85.583z" />
<glyph unicode="&#xe928;" glyph-name="evt_note" d="M855.899 496.646l-207.54 256.751h-410.802c-38.514 0-68.468-38.514-68.468-85.583v-513.502c0-47.071 29.954-85.583 68.468-85.583h549.876c38.514 0 68.468 38.514 68.468 85.583v342.335zM614.125 689.21l188.285-235.356h-188.285v235.356z" />
<glyph unicode="&#xe929;" glyph-name="evt_paragraph" d="M414.079 336.172v-246.053h98.421v543.458h98.421v-543.458h98.421v543.458h98.421v98.421h-393.685c-109.119 0-196.843-87.725-196.843-196.843s87.725-198.982 196.843-198.982z" />
<glyph unicode="&#xe92a;" glyph-name="evt_pin-alt-on" d="M536.605 875.913l-81.304-81.304 81.304-81.304-188.285-213.96h-184.006l147.632-147.632-228.937-299.544v-32.093h32.093l301.683 226.796 147.632-147.632v188.285l213.96 188.285 81.304-81.304 81.304 81.304-404.384 400.104zM457.439 422.318l-53.489 51.35 188.285 188.285 53.489-53.489-188.285-186.145z" />
<glyph unicode="&#xe92b;" glyph-name="evt_pin-off" d="M142.474 110.188c-14.978-14.978-10.697-38.514 4.279-55.629l29.954-29.954 151.911 151.911-59.908 59.908zM803.61 709.274c-117.678 117.678-305.962 117.678-423.64 0-72.746-72.746-98.421-171.168-83.443-265.31l-68.468-68.468c-17.118-17.118-17.118-44.932 0-59.908l181.865-181.865c17.118-17.118 44.932-17.118 59.908 0l68.468 68.468c92.003-17.118 192.564 10.697 265.31 83.443 117.678 117.678 117.678 308.102 0 423.64zM555.416 287.774l-44.932 8.557-70.607-70.607-121.957 121.957 70.607 70.607-8.557 44.932c-12.839 68.468 10.697 139.075 59.908 188.285 83.443 83.443 218.239 83.443 301.683 0s83.443-218.239 0-301.683c-47.071-51.35-117.678-74.886-186.145-62.049z" />
<glyph unicode="&#xe92c;" glyph-name="evt_pin-on" d="M142.474 110.188c-14.978-14.978-10.697-38.514 4.279-55.629l29.954-29.954 151.911 151.911-59.908 59.908zM803.61 709.274c-117.678 117.678-305.962 117.678-423.64 0-72.746-72.746-98.421-171.168-83.443-265.31l-68.468-68.468c-17.118-17.118-17.118-44.932 0-59.908l181.865-181.865c17.118-17.118 44.932-17.118 59.908 0l68.468 68.468c92.003-17.118 192.564 10.697 265.31 83.443 117.678 117.678 117.678 308.102 0 423.64z" />
<glyph unicode="&#xe92d;" glyph-name="evt_search" d="M672.961 314.779h-34.232l-12.839 10.697c42.793 49.211 66.328 111.259 66.328 181.865 0 154.050-124.096 278.147-278.147 278.147s-276.008-124.096-276.008-278.147 124.096-278.147 278.147-278.147c68.468 0 132.655 25.675 181.865 66.328l10.697-10.697v-34.232l213.96-213.96 64.189 64.189-213.96 213.96zM416.21 314.779c-106.979 0-192.564 85.583-192.564 192.564s85.583 192.564 192.564 192.564 192.564-85.583 192.564-192.564-85.583-192.564-192.564-192.564z" />
<glyph unicode="&#xe92e;" glyph-name="evt_txt" d="M392.682 775.863h-179.726c-47.071 0-85.583-32.093-85.583-72.746v-584.109c0-40.653 38.514-72.746 85.583-72.746h599.086c47.071 0 85.583 32.093 85.583 72.746v584.109c0 40.653-38.514 72.746-85.583 72.746h-179.726zM812.043 131.845h-599.086v556.295h599.086v-556.295zM304.959 442.086h412.941v-64.189h-412.941v64.189zM304.959 549.066h412.941v-64.189h-412.941v64.189zM304.959 335.107h412.941v-64.189h-412.941v64.189z" />
<glyph unicode="&#xe92f;" glyph-name="evt_txttxt" d="M555.282 432.454h299.544v-64.189h-299.544v64.189zM555.282 539.434h299.544v-64.189h-299.544v64.189zM555.282 325.474h299.544v-64.189h-299.544v64.189zM897.618 774.789h-770.254c-47.071 0-85.583-38.514-85.583-85.583v-556.295c0-47.071 38.514-85.583 85.583-85.583h770.254c47.071 0 85.583 38.514 85.583 85.583v556.295c0 47.071-38.514 85.583-85.583 85.583zM897.618 132.911h-385.127v556.295h385.127v-556.295zM138.062 432.454h299.544v-64.189h-299.544v64.189zM138.062 539.434h299.544v-64.189h-299.544v64.189zM138.062 325.474h299.544v-64.189h-299.544v64.189z" />
<glyph unicode="&#xe930;" glyph-name="evt_zoom-fit" d="M138.072 99.753l64.189-64.189 213.96 213.96v34.232l10.697 12.839c49.211-42.793 111.259-66.328 181.865-66.328 154.050 0 278.147 124.096 278.147 278.147s-124.096 278.147-278.147 278.147c-154.050 0-278.147-124.096-278.147-278.147 0-68.468 25.675-132.655 66.328-181.865l-10.697-12.839h-34.232l-213.96-213.96zM416.218 506.276c0 106.979 85.583 192.564 192.564 192.564s192.564-85.583 192.564-192.564-85.583-192.564-192.564-192.564-192.564 85.583-192.564 192.564zM501.802 527.672h85.583v85.583h42.793v-85.583h85.583v-42.793h-85.583v-85.583h-42.793v85.583h-85.583v42.793z" />
<glyph unicode="&#xe931;" glyph-name="evt_zoom-in" d="M136.182 99.247l64.519-64.519 215.054 215.054v34.414l10.748 10.748c49.465-43.015 111.826-66.667 182.787-66.667 154.84 0 279.557 124.734 279.557 279.557s-124.734 279.557-279.557 279.557-279.557-124.734-279.557-279.557c0-68.813 25.802-133.333 66.667-182.787l-10.748-10.748h-34.414l-215.054-215.054zM415.741 507.848c0 107.517 86.018 193.547 193.547 193.547s193.547-86.018 193.547-193.547-86.018-193.547-193.547-193.547-193.547 86.018-193.547 193.547zM712.517 643.328h-60.212v-30.106h60.212v-60.212h30.106v60.212c0 17.2-12.909 30.106-30.106 30.106zM712.517 402.476h-60.212v-30.106h60.212c17.2 0 30.106 12.909 30.106 30.106v60.212h-30.106v-60.212zM501.765 462.689h-30.106v-60.212c0-17.2 12.909-30.106 30.106-30.106h60.212v30.106h-60.212v60.212zM469.5 613.221v-60.212h32.251v60.212h60.212v30.106h-60.212c-17.2 0-32.251-12.909-32.251-30.106z" />
<glyph unicode="&#xe932;" glyph-name="evt_zoom-one" d="M138.063 99.753l64.189-64.189 213.96 213.96v34.232l10.697 12.839c49.211-42.793 111.259-66.328 181.865-66.328 154.050 0 278.147 124.096 278.147 278.147s-124.096 278.147-278.147 278.147c-154.050 0-278.147-124.096-278.147-278.147 0-68.468 25.675-132.655 66.328-181.865l-10.697-12.839h-34.232l-213.96-213.96zM416.21 506.276c0 106.979 85.583 192.564 192.564 192.564s192.564-85.583 192.564-192.564-85.583-192.564-192.564-192.564-192.564 85.583-192.564 192.564zM715.754 484.879h-213.96v42.793h213.96v-42.793z" />
<glyph unicode="&#xe933;" glyph-name="evt_zoom-out" d="M647.303 378.967v256.751h-42.793l-85.583-42.793v-42.793h64.189v-171.168h64.189zM138.079 100.819l64.189-64.189 213.96 213.96v34.232l10.697 10.697c49.211-42.793 111.259-66.328 181.865-66.328 154.050 0 278.147 124.096 278.147 278.147s-124.096 278.147-278.147 278.147-278.147-124.096-278.147-278.147c0-68.468 25.675-132.655 66.328-181.865l-10.697-10.697h-34.232l-213.96-213.96zM416.226 507.342c0 106.979 85.583 192.564 192.564 192.564s192.564-85.583 192.564-192.564-85.583-192.564-192.564-192.564-192.564 85.583-192.564 192.564z" />
<glyph unicode="&#xe934;" glyph-name="evt_zoom" d="M138.063 100.819l64.189-64.189 213.96 213.96v34.232l10.697 10.697c49.211-42.793 111.259-66.328 181.865-66.328 154.050 0 278.147 124.096 278.147 278.147s-124.096 278.147-278.147 278.147-278.147-124.096-278.147-278.147c0-68.468 25.675-132.655 66.328-181.865l-10.697-10.697h-34.232l-213.96-213.96zM416.21 507.342c0 106.979 85.583 192.564 192.564 192.564s192.564-85.583 192.564-192.564-85.583-192.564-192.564-192.564-192.564 85.583-192.564 192.564z" />
<glyph unicode="&#xe935;" glyph-name="evt_align" d="M726.449 25.925h85.583v256.751h-85.583v-256.751zM212.947 25.925h85.583v427.919h-85.583v-427.919zM897.618 453.845h-85.583v342.335h-85.583v-342.335h-85.583v-85.583h256.751v85.583zM384.114 197.093h85.583v-171.168h85.583v171.168h85.583v85.583h-256.751v-85.583zM555.282 796.18h-85.583v-427.919h85.583v427.919zM384.114 539.428v85.583h-85.583v171.168h-85.583v-171.168h-85.583v-85.583h256.751z" />
<glyph unicode="&#xe936;" glyph-name="evt_bookmark-alt2" d="M769.251 775.863h-513.502c-47.071 0-85.583-32.093-85.583-72.746v-584.109c0-40.653 38.514-72.746 85.583-72.746h513.502c47.071 0 85.583 32.093 85.583 72.746v584.109c0 40.653-38.514 72.746-85.583 72.746zM255.748 703.116h213.96v-293.125l-106.979 55.629-106.979-55.629v293.125z" />
<glyph unicode="&#xe937;" glyph-name="evt_bookreader-alt" d="M897.628 753.403c-47.071 14.978-100.561 21.396-149.771 21.396-83.443 0-173.307-17.118-235.356-64.189-62.049 47.071-151.911 64.189-235.356 64.189s-173.307-17.118-235.356-64.189v-626.902c0-10.697 10.697-21.396 21.396-21.396 4.279 0 6.418 2.139 10.697 2.139 57.768 27.814 141.214 47.071 203.261 47.071 83.443 0 173.307-17.118 235.356-64.189 57.768 36.373 162.609 64.189 235.356 64.189 70.607 0 143.353-12.839 203.261-44.932 4.279-2.139 6.418-2.139 10.697-2.139 10.697 0 21.396 10.697 21.396 21.396v624.762c-25.675 19.257-53.489 32.093-85.583 42.793zM897.628 175.713c-47.071 14.978-98.421 21.396-149.771 21.396-72.746 0-177.586-27.814-235.356-64.189v492.108c57.768 36.373 162.609 64.189 235.356 64.189 51.35 0 102.7-6.418 149.771-21.396v-492.108z" />
<glyph unicode="&#xe938;" glyph-name="evt_font-size-minus-alt" d="M356.321 346.874h177.586l-87.725 235.356-89.864-235.356zM854.846 838.982h-684.671c-47.071 0-85.583-38.514-85.583-85.583v-684.671c0-47.071 38.514-85.583 85.583-85.583h684.671c47.071 0 85.583 38.514 85.583 85.583v684.671c0 47.071-38.514 85.583-85.583 85.583zM615.212 132.915l-49.211 128.375h-241.775l-47.071-128.375h-89.864l218.239 556.295h79.164l220.378-556.295h-89.864zM876.243 577.951h-293.125v59.908h293.125z" />
<glyph unicode="&#xe939;" glyph-name="evt_font-size-reset-alt" d="M356.321 346.874h177.586l-87.725 235.356-89.864-235.356zM854.846 838.982h-684.671c-47.071 0-85.583-38.514-85.583-85.583v-684.671c0-47.071 38.514-85.583 85.583-85.583h684.671c47.071 0 85.583 38.514 85.583 85.583v684.671c0 47.071-38.514 85.583-85.583 85.583zM615.212 132.915l-49.211 128.375h-241.775l-47.071-128.375h-89.864l218.239 556.295h79.164l220.378-556.295h-89.864zM722.192 479.53c-55.629 0-104.839 34.232-124.096 81.304h47.071c17.118-25.675 44.932-40.653 79.164-40.653 53.489 0 96.282 42.793 96.282 96.282s-42.793 96.282-96.282 96.282c-36.373 0-68.468-21.396-83.443-51.35l42.793-42.793h-109.119v106.979l36.373-36.373c21.396 38.514 64.189 64.189 111.259 64.189 74.886 0 136.934-62.049 136.934-136.934s-62.049-136.934-136.934-136.934z" />
<glyph unicode="&#xe93a;" glyph-name="evt_font-size" d="M356.321 346.874h177.586l-87.725 235.356-89.864-235.356zM854.846 838.982h-684.671c-47.071 0-85.583-38.514-85.583-85.583v-684.671c0-47.071 38.514-85.583 85.583-85.583h684.671c47.071 0 85.583 38.514 85.583 85.583v684.671c0 47.071-38.514 85.583-85.583 85.583zM615.212 132.915l-49.211 128.375h-241.775l-47.071-128.375h-89.864l218.239 556.295h79.164l220.378-556.295h-89.864zM741.448 652.837c-21.396 0-40.653-17.118-40.653-40.653s17.118-40.653 40.653-40.653 40.653 17.118 40.653 40.653-19.257 40.653-40.653 40.653zM846.288 612.183c0-4.279 0-8.557 0-12.839l29.954-23.536c2.139-2.139 4.279-6.418 2.139-8.557l-29.954-49.211c-2.139-2.139-6.418-4.279-8.557-2.139l-34.232 14.978c-6.418-6.418-14.978-10.697-23.536-12.839l-4.279-36.373c0-4.279-4.279-6.418-6.418-6.418h-55.629c-4.279 0-6.418 2.139-6.418 6.418l-4.279 36.373c-8.557 4.279-17.118 8.557-23.536 12.839l-34.232-14.978c-4.279-2.139-6.418 0-8.557 2.139l-27.814 49.211c-2.139 2.139 0 6.418 2.139 8.557l29.954 23.536c0 4.279 0 8.557 0 12.839s0 8.557 0 12.839l-29.954 23.536c-2.139 2.139-4.279 6.418-2.139 8.557l27.814 49.211c2.139 2.139 6.418 4.279 8.557 2.139l34.232-14.978c6.418 6.418 14.978 10.697 23.536 12.839v40.653c0 4.279 4.279 6.418 6.418 6.418h57.768c4.279 0 6.418-2.139 6.418-6.418l4.279-36.373c8.557-4.279 17.118-8.557 23.536-12.839l34.232 14.978c2.139 2.139 6.418 0 8.557-2.139l27.814-49.211c2.139-2.139 0-6.418-2.139-8.557l-29.954-23.536c4.279-6.418 4.279-12.839 4.279-17.118z" />
<glyph unicode="&#xe93b;" glyph-name="evt_thumbnails" d="M148.724 432.46h213.986v256.78h-213.986v-256.78zM148.724 132.88h213.986v256.78h-213.986v-256.78zM405.504 132.88h213.986v256.78h-213.986v-256.78zM662.288 132.88h213.986v256.78h-213.986v-256.78zM405.504 432.46h213.986v256.78h-213.986v-256.78zM662.288 689.239v-256.78h213.986v256.78h-213.986z" />
<glyph unicode="&#xf013;" glyph-name="evt_advanced-search" d="M635.132 448.002c0 67.813-55.308 123.122-123.122 123.122s-123.122-55.308-123.122-123.122 55.308-123.122 123.122-123.122 123.122 55.308 123.122 123.122zM881.375 500.426v-106.769c0-7.213-5.771-15.87-13.467-17.313l-88.974-13.467c-5.291-15.391-11.062-29.82-18.757-43.768 16.353-23.567 33.668-44.729 51.461-66.371 2.886-3.367 4.807-7.696 4.807-12.025s-1.443-7.696-4.329-11.062c-11.542-15.391-76.471-86.090-92.822-86.090-4.329 0-8.657 1.924-12.505 4.329l-66.371 51.942c-13.946-7.213-28.857-13.467-43.768-18.275-3.367-29.339-6.253-60.599-13.946-89.457-1.924-7.696-8.657-13.467-17.313-13.467h-106.769c-8.657 0-16.353 6.253-17.313 14.429l-13.467 88.494c-14.91 4.807-29.339 10.581-43.286 17.796l-67.813-51.461c-3.367-2.886-7.696-4.329-12.025-4.329s-8.657 1.924-12.025 5.291c-25.491 23.086-59.157 52.903-79.357 80.8-2.406 3.367-3.367 7.213-3.367 11.062 0 4.329 1.443 7.696 3.847 11.062 16.353 22.125 34.146 43.286 50.5 65.89-8.175 15.391-14.91 31.261-19.72 47.613l-88.012 12.986c-8.175 1.443-13.946 9.138-13.946 17.313v106.769c0 7.213 5.771 15.87 12.986 17.313l89.457 13.467c4.807 15.391 11.062 29.82 18.757 44.245-16.353 23.086-33.668 44.729-51.461 66.371-2.886 3.367-4.807 7.213-4.807 11.542s1.924 7.696 4.329 11.062c11.542 15.87 76.471 86.090 92.822 86.090 4.329 0 8.657-1.924 12.505-4.807l66.371-51.461c13.946 7.213 28.857 13.467 43.768 18.275 3.367 29.339 6.253 60.599 13.946 89.457 1.924 7.696 8.657 13.467 17.313 13.467h106.769c8.657 0 16.353-6.253 17.313-14.429l13.467-88.494c14.91-4.807 29.339-10.581 43.286-17.796l68.294 51.461c2.886 2.886 7.213 4.329 11.542 4.329s8.657-1.924 12.025-4.807c25.491-23.567 59.157-53.386 79.357-81.761 2.406-2.886 3.367-6.735 3.367-10.581 0-4.329-1.443-7.696-3.847-11.062-16.353-22.125-34.146-43.286-50.5-65.89 8.175-15.391 14.91-31.261 19.72-47.132l88.012-13.467c8.175-1.443 13.946-9.138 13.946-17.313z" />
<glyph unicode="&#xf102;" glyph-name="evt_search-results-open" d="M777.805 234.931c0-4.261-2.131-9.055-5.329-12.249l-26.634-26.634c-3.198-3.198-7.456-5.329-12.249-5.329-4.261 0-9.055 2.131-12.249 5.329l-209.344 209.344-209.344-209.344c-3.198-3.198-7.987-5.329-12.249-5.329s-9.055 2.131-12.249 5.329l-26.634 26.634c-3.198 3.198-5.329 7.987-5.329 12.249s2.131 9.055 5.329 12.249l248.227 248.227c3.198 3.198 7.987 5.329 12.249 5.329s9.055-2.131 12.249-5.329l248.227-248.227c3.198-3.198 5.329-7.987 5.329-12.249zM777.805 439.479c0-4.261-2.131-9.055-5.329-12.249l-26.634-26.634c-3.198-3.198-7.456-5.329-12.249-5.329-4.261 0-9.055 2.131-12.249 5.329l-209.344 209.344-209.344-209.344c-3.198-3.198-7.987-5.329-12.249-5.329s-9.055 2.131-12.249 5.329l-26.634 26.634c-3.198 3.198-5.329 7.987-5.329 12.249s2.131 9.055 5.329 12.249l248.227 248.227c3.198 3.198 7.987 5.329 12.249 5.329s9.055-2.131 12.249-5.329l248.227-248.227c3.198-3.198 5.329-7.987 5.329-12.249z" />
<glyph unicode="&#xf103;" glyph-name="evt_search-results-close" d="M744.762 455.457c0-3.731-1.866-7.929-4.665-10.728l-217.363-217.363c-2.799-2.799-6.996-4.665-10.728-4.665s-7.929 1.866-10.728 4.665l-217.363 217.363c-2.799 2.799-4.665 6.996-4.665 10.728s1.866 7.929 4.665 10.728l23.322 23.322c2.799 2.799 6.53 4.665 10.728 4.665 3.731 0 7.929-1.866 10.728-4.665l183.313-183.313 183.313 183.313c2.799 2.799 6.996 4.665 10.728 4.665s7.929-1.866 10.728-4.665l23.322-23.322c2.799-2.799 4.665-6.996 4.665-10.728zM744.762 634.572c0-3.731-1.866-7.929-4.665-10.728l-217.363-217.363c-2.799-2.799-6.996-4.665-10.728-4.665s-7.929 1.866-10.728 4.665l-217.363 217.363c-2.799 2.799-4.665 6.996-4.665 10.728s1.866 7.929 4.665 10.728l23.322 23.322c2.799 2.799 6.53 4.665 10.728 4.665 3.731 0 7.929-1.866 10.728-4.665l183.313-183.313 183.313 183.313c2.799 2.799 6.996 4.665 10.728 4.665s7.929-1.866 10.728-4.665l23.322-23.322c2.799-2.799 4.665-6.996 4.665-10.728z" />
<glyph unicode="&#xf104;" glyph-name="evt_previous" d="M678.441 685.947c0-4.575-2.288-9.723-5.72-13.156l-224.791-224.791 224.791-224.791c3.432-3.432 5.72-8.579 5.72-13.156s-2.288-9.723-5.72-13.156l-28.599-28.599c-3.432-3.432-8.579-5.72-13.156-5.72s-9.723 2.288-13.156 5.72l-266.546 266.546c-3.432 3.432-5.72 8.579-5.72 13.156s2.288 9.723 5.72 13.156l266.546 266.546c3.432 3.432 8.579 5.72 13.156 5.72s9.723-2.288 13.156-5.72l28.599-28.599c3.432-3.432 5.72-8.008 5.72-13.156z" />
<glyph unicode="&#xf105;" glyph-name="evt_next" d="M678.446 447.996c0-4.575-2.288-9.723-5.72-13.156l-266.546-266.546c-3.432-3.432-8.579-5.72-13.156-5.72s-9.723 2.288-13.156 5.72l-28.599 28.599c-3.432 3.432-5.72 8.008-5.72 13.156 0 4.575 2.288 9.723 5.72 13.156l224.791 224.791-224.791 224.791c-3.432 3.432-5.72 8.579-5.72 13.156s2.288 9.723 5.72 13.156l28.599 28.599c3.432 3.432 8.579 5.72 13.156 5.72s9.723-2.288 13.156-5.72l266.546-266.546c3.432-3.432 5.72-8.579 5.72-13.156z" />
<glyph unicode="&#xf11c;" glyph-name="evt_keyboard" d="M273.491 361.876v-39.752c0-3.727-2.9-6.626-6.626-6.626h-39.752c-3.727 0-6.626 2.9-6.626 6.626v39.752c0 3.727 2.9 6.626 6.626 6.626h39.752c3.727 0 6.626-2.9 6.626-6.626zM326.491 467.878v-39.752c0-3.727-2.9-6.626-6.626-6.626h-92.751c-3.727 0-6.626 2.9-6.626 6.626v39.752c0 3.727 2.9 6.626 6.626 6.626h92.751c3.727 0 6.626-2.9 6.626-6.626zM273.491 573.88v-39.752c0-3.727-2.9-6.626-6.626-6.626h-39.752c-3.727 0-6.626 2.9-6.626 6.626v39.752c0 3.727 2.9 6.626 6.626 6.626h39.752c3.727 0 6.626-2.9 6.626-6.626zM697.494 361.876v-39.752c0-3.727-2.9-6.626-6.626-6.626h-357.753c-3.727 0-6.626 2.9-6.626 6.626v39.752c0 3.727 2.9 6.626 6.626 6.626h357.753c3.727 0 6.626-2.9 6.626-6.626zM432.492 467.878v-39.752c0-3.727-2.9-6.626-6.626-6.626h-39.752c-3.727 0-6.626 2.9-6.626 6.626v39.752c0 3.727 2.9 6.626 6.626 6.626h39.752c3.727 0 6.626-2.9 6.626-6.626zM379.491 573.88v-39.752c0-3.727-2.9-6.626-6.626-6.626h-39.752c-3.727 0-6.626 2.9-6.626 6.626v39.752c0 3.727 2.9 6.626 6.626 6.626h39.752c3.727 0 6.626-2.9 6.626-6.626zM538.494 467.878v-39.752c0-3.727-2.9-6.626-6.626-6.626h-39.752c-3.727 0-6.626 2.9-6.626 6.626v39.752c0 3.727 2.9 6.626 6.626 6.626h39.752c3.727 0 6.626-2.9 6.626-6.626zM485.491 573.88v-39.752c0-3.727-2.9-6.626-6.626-6.626h-39.752c-3.727 0-6.626 2.9-6.626 6.626v39.752c0 3.727 2.9 6.626 6.626 6.626h39.752c3.727 0 6.626-2.9 6.626-6.626zM644.493 467.878v-39.752c0-3.727-2.9-6.626-6.626-6.626h-39.752c-3.727 0-6.626 2.9-6.626 6.626v39.752c0 3.727 2.9 6.626 6.626 6.626h39.752c3.727 0 6.626-2.9 6.626-6.626zM803.494 361.876v-39.752c0-3.727-2.9-6.626-6.626-6.626h-39.752c-3.727 0-6.626 2.9-6.626 6.626v39.752c0 3.727 2.9 6.626 6.626 6.626h39.752c3.727 0 6.626-2.9 6.626-6.626zM591.493 573.88v-39.752c0-3.727-2.9-6.626-6.626-6.626h-39.752c-3.727 0-6.626 2.9-6.626 6.626v39.752c0 3.727 2.9 6.626 6.626 6.626h39.752c3.727 0 6.626-2.9 6.626-6.626zM697.494 573.88v-39.752c0-3.727-2.9-6.626-6.626-6.626h-39.752c-3.727 0-6.626 2.9-6.626 6.626v39.752c0 3.727 2.9 6.626 6.626 6.626h39.752c3.727 0 6.626-2.9 6.626-6.626zM803.494 573.88v-145.75c0-3.727-2.9-6.626-6.626-6.626h-92.751c-3.727 0-6.626 2.9-6.626 6.626v39.752c0 3.727 2.9 6.626 6.626 6.626h46.376v99.376c0 3.727 2.9 6.626 6.626 6.626h39.752c3.727 0 6.626-2.9 6.626-6.626zM856.496 262.502v371.002h-689.004v-371.002h689.004zM909.496 633.506v-371.002c0-29.399-23.6-52.999-52.999-52.999h-689.004c-29.399 0-52.999 23.6-52.999 52.999v371.002c0 29.399 23.6 52.999 52.999 52.999h689.004c29.399 0 52.999-23.6 52.999-52.999z" />
</font>
</defs>
</svg>
