<?xml version="1.0" standalone="no"?>
<!DOCTYPE svg PUBLIC "-//W3C//DTD SVG 1.1//EN" "http://www.w3.org/Graphics/SVG/1.1/DTD/svg11.dtd" >
<svg xmlns="http://www.w3.org/2000/svg">
<metadata>Generated by IcoMoon</metadata>
<defs>
<font id="icomoon" horiz-adv-x="1024">
<font-face units-per-em="1024" ascent="960" descent="-64" />
<missing-glyph horiz-adv-x="1024" />
<glyph unicode="&#x20;" horiz-adv-x="512" d="" />
<glyph unicode="&#xe900;" glyph-name="evt_bookreader" d="M915.2 816h-833.6c-51.2 0-89.6-38.4-89.6-89.6v-556.8c0-51.2 38.4-89.6 89.6-89.6h833.6c51.2 0 100.8 38.4 100.8 89.6v556.8c0 51.2-49.6 89.6-100.8 89.6zM920 176h-832v544h832v-544zM774.4 652.8c51.2-16 78.4-44.8 76.8-89.6-3.2-104 0-208-1.6-310.4 0-11.2-6.4-27.2-16-33.6-6.4-4.8-30.4 1.6-41.6 8-88 48-174.4 48-260.8-1.6-19.2-11.2-35.2-12.8-56 0-86.4 49.6-174.4 49.6-262.4 0-9.6-6.4-32-11.2-38.4-8-9.6 4.8-16 19.2-16 30.4-1.6 107.2 1.6 214.4-1.6 320-1.6 38.4 20.8 62.4 62.4 78.4 91.2 35.2 180.8 32 268.8-9.6 4.8-3.2 9.6-4.8 14.4-8 86.4 49.6 177.6 56 272 24z" />
<glyph unicode="&#xe901;" glyph-name="evt_collation" d="M297.6 560h-137.6c-6.4 0-12.8-11.2-12.8-22.4 0-12.8 6.4-22.4 12.8-22.4h136c6.4 0 12.8 11.2 12.8 22.4 1.6 12.8-4.8 22.4-11.2 22.4zM297.6 652.8h-137.6c-6.4 0-12.8-11.2-12.8-22.4 0-12.8 6.4-22.4 12.8-22.4h136c6.4 0 12.8 11.2 12.8 22.4 1.6 12.8-4.8 22.4-11.2 22.4zM297.6 467.2h-137.6c-6.4 0-12.8-11.2-12.8-22.4s6.4-22.4 12.8-22.4h136c6.4 0 12.8 11.2 12.8 22.4s-4.8 22.4-11.2 22.4zM297.6 374.4h-137.6c-6.4 0-12.8-11.2-12.8-22.4 0-12.8 6.4-22.4 12.8-22.4h136c6.4 0 12.8 11.2 12.8 22.4s-4.8 22.4-11.2 22.4zM297.6 281.6h-137.6c-6.4 0-12.8-11.2-12.8-22.4s6.4-22.4 12.8-22.4h136c6.4 0 12.8 11.2 12.8 22.4 1.6 11.2-4.8 22.4-11.2 22.4zM593.6 560h-136c-6.4 0-12.8-11.2-12.8-22.4 0-12.8 6.4-22.4 12.8-22.4h136c6.4 0 12.8 11.2 12.8 22.4 1.6 12.8-4.8 22.4-12.8 22.4zM593.6 652.8h-136c-6.4 0-12.8-11.2-12.8-22.4 0-12.8 6.4-22.4 12.8-22.4h136c6.4 0 12.8 11.2 12.8 22.4 1.6 12.8-4.8 22.4-12.8 22.4zM593.6 467.2h-136c-6.4 0-12.8-11.2-12.8-22.4s6.4-22.4 12.8-22.4h136c6.4 0 12.8 11.2 12.8 22.4s-4.8 22.4-12.8 22.4zM593.6 374.4h-136c-6.4 0-12.8-11.2-12.8-22.4 0-12.8 6.4-22.4 12.8-22.4h136c6.4 0 12.8 11.2 12.8 22.4s-4.8 22.4-12.8 22.4zM593.6 281.6h-136c-6.4 0-12.8-11.2-12.8-22.4s6.4-22.4 12.8-22.4h136c6.4 0 12.8 11.2 12.8 22.4 1.6 11.2-4.8 22.4-12.8 22.4zM928 816h-832c-51.2 0-96-38.4-96-89.6v-556.8c0-51.2 44.8-89.6 96-89.6h832c51.2 0 94.4 38.4 94.4 89.6v556.8c1.6 51.2-41.6 89.6-94.4 89.6zM360 176h-264v544h265.6v-544zM648 176h-256v544h256v-544zM937.6 176h-256v544h256v-544zM876.8 560h-136c-6.4 0-12.8-11.2-12.8-22.4 0-12.8 6.4-22.4 12.8-22.4h136c6.4 0 12.8 11.2 12.8 22.4 0 12.8-4.8 22.4-12.8 22.4zM876.8 652.8h-136c-6.4 0-12.8-11.2-12.8-22.4 0-12.8 6.4-22.4 12.8-22.4h136c6.4 0 12.8 11.2 12.8 22.4 0 12.8-4.8 22.4-12.8 22.4zM876.8 467.2h-136c-6.4 0-12.8-11.2-12.8-22.4s6.4-22.4 12.8-22.4h136c6.4 0 12.8 11.2 12.8 22.4s-4.8 22.4-12.8 22.4zM876.8 374.4h-136c-6.4 0-12.8-11.2-12.8-22.4 0-12.8 6.4-22.4 12.8-22.4h136c6.4 0 12.8 11.2 12.8 22.4s-4.8 22.4-12.8 22.4zM876.8 281.6h-136c-6.4 0-12.8-11.2-12.8-22.4s6.4-22.4 12.8-22.4h136c6.4 0 12.8 11.2 12.8 22.4s-4.8 22.4-12.8 22.4z" />
<glyph unicode="&#xe902;" glyph-name="evt_heatmap" d="M620.8 740.8h-502.4c-25.6 0-49.6-22.4-49.6-44.8 0-25.6 22.4-44.8 49.6-44.8h504c25.6 0 49.6 22.4 49.6 44.8-1.6 25.6-24 44.8-51.2 44.8zM928 875.2h-273.6c-14.4 0-27.2-22.4-27.2-44.8 0-25.6 12.8-44.8 27.2-44.8h273.6c14.4 0 27.2 22.4 27.2 44.8 0 25.6-12.8 44.8-27.2 44.8zM908.8 571.2h-476.8c-25.6 0-46.4-22.4-46.4-44.8s20.8-44.8 46.4-44.8h476.8c25.6 0 46.4 22.4 46.4 44.8s-22.4 44.8-46.4 44.8zM928 408h-273.6c-14.4 0-27.2-22.4-27.2-44.8 0-25.6 12.8-44.8 27.2-44.8h273.6c14.4 0 27.2 22.4 27.2 44.8s-12.8 44.8-27.2 44.8zM385.6 408h-273.6c-14.4 0-27.2-22.4-27.2-44.8s12.8-44.8 27.2-44.8h273.6c14.4 0 27.2 22.4 27.2 44.8s-12.8 44.8-27.2 44.8zM608 248h-476.8c-25.6 0-46.4-22.4-46.4-44.8s20.8-44.8 46.4-44.8h476.8c25.6 0 46.4 22.4 46.4 44.8s-20.8 44.8-46.4 44.8zM928 100.8h-273.6c-14.4 0-27.2-22.4-27.2-44.8 0-25.6 12.8-44.8 27.2-44.8h273.6c14.4 0 27.2 22.4 27.2 44.8 0 25.6-12.8 44.8-27.2 44.8zM278.4 100.8h-176c-9.6 0-17.6-22.4-17.6-44.8s8-44.8 17.6-44.8h176c9.6 0 17.6 22.4 17.6 44.8s-8 44.8-17.6 44.8z" />
<glyph unicode="&#xe903;" glyph-name="evt_hotspot" d="M952 816h-312v72c0 40-32 72-72 72h-496c-40 0-72-32-72-72v-368c0-40 32-72 72-72h248v-32h-120c-40 0-72-32-72-72v-336c0-40 32-72 72-72h480c40 0 72 32 72 72v136h200c40 0 72 32 72 72v528c0 40-32 72-72 72zM112 560v288h416v-32h-136c-40 0-72-32-72-72v-184h-208zM528 704v-144h-96v144h96zM640 48h-400v256h80v-88c0-40 32-72 72-72h248v-96zM640 256h-208v48h208v-48zM912 256h-160v88c0 40-32 72-72 72h-248v32h136c40 0 72 32 72 72v184h272v-448z" />
<glyph unicode="&#xe904;" glyph-name="evt_imgtxt" d="M427.2 616c0 19.2-14.4 33.6-32 33.6h-190.4c-17.6 0-32-14.4-32-33.6v-337.6c0-19.2 14.4-33.6 32-33.6h190.4c17.6 0 32 14.4 32 33.6v337.6zM859.2 560h-214.4c-11.2 0-20.8-11.2-20.8-22.4 0-12.8 9.6-22.4 20.8-22.4h214.4c11.2 0 20.8 11.2 20.8 22.4 0 12.8-9.6 22.4-20.8 22.4zM859.2 652.8h-214.4c-11.2 0-20.8-11.2-20.8-22.4 0-12.8 9.6-22.4 20.8-22.4h214.4c11.2 0 20.8 11.2 20.8 22.4 0 12.8-9.6 22.4-20.8 22.4zM859.2 467.2h-214.4c-11.2 0-20.8-11.2-20.8-22.4s9.6-22.4 20.8-22.4h214.4c11.2 0 20.8 11.2 20.8 22.4s-9.6 22.4-20.8 22.4zM859.2 374.4h-214.4c-11.2 0-20.8-11.2-20.8-22.4 0-12.8 9.6-22.4 20.8-22.4h214.4c11.2 0 20.8 11.2 20.8 22.4s-9.6 22.4-20.8 22.4zM859.2 281.6h-214.4c-11.2 0-20.8-11.2-20.8-22.4s9.6-22.4 20.8-22.4h214.4c11.2 0 20.8 11.2 20.8 22.4s-9.6 22.4-20.8 22.4zM937.6 816h-833.6c-51.2 0-94.4-38.4-94.4-89.6v-556.8c0-51.2 43.2-89.6 94.4-89.6h833.6c51.2 0 94.4 38.4 94.4 89.6v556.8c0 51.2-43.2 89.6-94.4 89.6zM504 176h-400v544h400v-544zM937.6 176h-385.6v544h385.6v-544z" />
<glyph unicode="&#xe905;" glyph-name="evt_list" d="M240 736c0-9.6-6.4-16-16-16h-160c-9.6 0-16 6.4-16 16v160c0 9.6 6.4 16 16 16h160c9.6 0 16-6.4 16-16v-160zM976 736c0-9.6-6.4-16-16-16h-656c-9.6 0-16 6.4-16 16v160c0 9.6 6.4 16 16 16h656c9.6 0 16-6.4 16-16v-160zM240 496c0-9.6-6.4-16-16-16h-160c-9.6 0-16 6.4-16 16v160c0 9.6 6.4 16 16 16h160c9.6 0 16-6.4 16-16v-160zM976 496c0-9.6-6.4-16-16-16h-656c-9.6 0-16 6.4-16 16v160c0 9.6 6.4 16 16 16h656c9.6 0 16-6.4 16-16v-160zM240 240c0-9.6-6.4-16-16-16h-160c-9.6 0-16 6.4-16 16v160c0 9.6 6.4 16 16 16h160c9.6 0 16-6.4 16-16v-160zM976 240c0-9.6-6.4-16-16-16h-656c-9.6 0-16 6.4-16 16v160c0 9.6 6.4 16 16 16h656c9.6 0 16-6.4 16-16v-160zM240 0c0-9.6-6.4-16-16-16h-160c-9.6 0-16 6.4-16 16v160c0 9.6 6.4 16 16 16h160c9.6 0 16-6.4 16-16v-160zM976 0c0-9.6-6.4-16-16-16h-656c-9.6 0-16 6.4-16 16v160c0 9.6 6.4 16 16 16h656c9.6 0 16-6.4 16-16v-160z" />
<glyph unicode="&#xe906;" glyph-name="evt_search" d="M17.711-44.679c12.881-12.881 30.591-19.321 46.692-19.321s32.201 6.44 45.082 17.711l276.931 267.27c66.013-46.692 146.516-72.453 231.849-72.453 223.799 0 405.736 181.937 405.736 405.736s-181.937 405.736-405.736 405.736c-225.409 0-407.346-181.937-407.346-405.736 0-91.774 30.591-175.497 80.503-243.119l-273.711-264.050c-24.151-24.151-24.151-66.013 0-91.774zM618.264 277.333c-152.956 0-276.931 123.975-276.931 276.931s123.975 276.931 276.931 276.931c152.956 0 276.931-123.975 276.931-276.931s-123.975-276.931-276.931-276.931z" />
<glyph unicode="&#xe907;" glyph-name="evt_thumb" d="M336 659.2c0-9.6-6.4-16-16-16h-240c-9.6 0-16 6.4-16 16v240c0 9.6 6.4 16 16 16h240c9.6 0 16-6.4 16-16v-240zM672 659.2c0-9.6-6.4-16-16-16h-240c-9.6 0-16 6.4-16 16v240c0 9.6 6.4 16 16 16h240c9.6 0 16-6.4 16-16v-240zM992 659.2c0-9.6-6.4-16-16-16h-240c-9.6 0-16 6.4-16 16v240c0 9.6 6.4 16 16 16h240c9.6 0 16-6.4 16-16v-240zM336 323.2c0-9.6-6.4-16-16-16h-240c-9.6 0-16 6.4-16 16v240c0 9.6 6.4 16 16 16h240c9.6 0 16-6.4 16-16v-240zM672 323.2c0-9.6-6.4-16-16-16h-240c-9.6 0-16 6.4-16 16v240c0 9.6 6.4 16 16 16h240c9.6 0 16-6.4 16-16v-240zM992 323.2c0-9.6-6.4-16-16-16h-240c-9.6 0-16 6.4-16 16v240c0 9.6 6.4 16 16 16h240c9.6 0 16-6.4 16-16v-240zM336 3.2c0-9.6-6.4-16-16-16h-240c-9.6 0-16 6.4-16 16v240c0 9.6 6.4 16 16 16h240c9.6 0 16-6.4 16-16v-240zM672 3.2c0-9.6-6.4-16-16-16h-240c-9.6 0-16 6.4-16 16v240c0 9.6 6.4 16 16 16h240c9.6 0 16-6.4 16-16v-240zM992 3.2c0-9.6-6.4-16-16-16h-240c-9.6 0-16 6.4-16 16v240c0 9.6 6.4 16 16 16h240c9.6 0 16-6.4 16-16v-240z" />
<glyph unicode="&#xe908;" glyph-name="evt_txttxt" d="M401.6 563.2h-212.8c-11.2 0-20.8-11.2-20.8-22.4 0-12.8 9.6-22.4 20.8-22.4h214.4c11.2 0 20.8 11.2 20.8 22.4 0 12.8-9.6 22.4-22.4 22.4zM401.6 656h-212.8c-11.2 0-20.8-11.2-20.8-22.4 0-12.8 9.6-22.4 20.8-22.4h214.4c11.2 0 20.8 11.2 20.8 22.4 0 12.8-9.6 22.4-22.4 22.4zM401.6 470.4h-212.8c-11.2 0-20.8-11.2-20.8-22.4s9.6-22.4 20.8-22.4h214.4c11.2 0 20.8 11.2 20.8 22.4s-9.6 22.4-22.4 22.4zM401.6 377.6h-212.8c-11.2 0-20.8-11.2-20.8-22.4 0-12.8 9.6-22.4 20.8-22.4h214.4c11.2 0 20.8 11.2 20.8 22.4s-9.6 22.4-22.4 22.4zM401.6 284.8h-212.8c-11.2 0-20.8-11.2-20.8-22.4s9.6-22.4 20.8-22.4h214.4c11.2 0 20.8 11.2 20.8 22.4s-9.6 22.4-22.4 22.4zM849.6 563.2h-212.8c-11.2 0-20.8-11.2-20.8-22.4 0-12.8 9.6-22.4 20.8-22.4h214.4c11.2 0 20.8 11.2 20.8 22.4 0 12.8-9.6 22.4-22.4 22.4zM849.6 656h-212.8c-11.2 0-20.8-11.2-20.8-22.4 0-12.8 9.6-22.4 20.8-22.4h214.4c11.2 0 20.8 11.2 20.8 22.4 0 12.8-9.6 22.4-22.4 22.4zM849.6 470.4h-212.8c-11.2 0-20.8-11.2-20.8-22.4s9.6-22.4 20.8-22.4h214.4c11.2 0 20.8 11.2 20.8 22.4s-9.6 22.4-22.4 22.4zM849.6 377.6h-212.8c-11.2 0-20.8-11.2-20.8-22.4 0-12.8 9.6-22.4 20.8-22.4h214.4c11.2 0 20.8 11.2 20.8 22.4s-9.6 22.4-22.4 22.4zM849.6 284.8h-212.8c-11.2 0-20.8-11.2-20.8-22.4s9.6-22.4 20.8-22.4h214.4c11.2 0 20.8 11.2 20.8 22.4s-9.6 22.4-22.4 22.4zM928 819.2h-832c-51.2 0-96-38.4-96-89.6v-556.8c0-51.2 43.2-89.6 94.4-89.6h833.6c51.2 0 94.4 38.4 94.4 89.6v556.8c1.6 51.2-41.6 89.6-94.4 89.6zM496 179.2h-400v544h400v-544zM928 179.2h-384v544h384v-544z" />
<glyph unicode="&#xe909;" glyph-name="evt_zoom-fit" d="M790.541 576.805c6.44-6.44 14.491-4.83 14.491 4.83v136.855c0 8.050-14.491 16.101-22.541 16.101h-138.465c-8.050 0-9.66-4.83-3.22-11.27l149.736-146.516zM17.711-44.679c12.881-12.881 28.981-19.321 46.692-19.321 16.101 0 32.201 6.44 45.082 17.711l276.931 267.27c66.013-46.692 146.516-72.453 231.849-72.453 223.799 0 405.736 181.937 405.736 405.736s-181.937 405.736-405.736 405.736c-223.799 0-405.736-181.937-405.736-405.736 0-91.774 30.591-175.497 80.503-243.119l-273.711-264.050c-25.761-24.151-25.761-66.013-1.61-91.774zM618.264 277.333c-152.956 0-276.931 123.975-276.931 276.931s123.975 276.931 276.931 276.931 276.931-123.975 276.931-276.931-123.975-276.931-276.931-276.931zM445.987 576.805c-6.44-6.44-11.27-4.83-11.27 4.83v136.855c0 8.050 8.050 16.101 16.101 16.101h136.855c8.050 0 11.27-4.83 4.83-11.27l-146.516-146.516zM790.541 514.013c6.44 6.44 14.491 4.83 14.491-4.83v-136.855c0-8.050-14.491-24.151-22.541-24.151h-138.465c-8.050 0-9.66 8.050-3.22 14.491l149.736 151.346zM445.987 514.013c-6.44 6.44-11.27 4.83-11.27-4.83v-136.855c0-8.050 8.050-24.151 16.101-24.151h136.855c8.050 0 11.27 8.050 4.83 14.491l-146.516 151.346z" />
<glyph unicode="&#xe90a;" glyph-name="evt_zoom-minus" d="M17.711-44.679c12.881-12.881 28.981-19.321 46.692-19.321 16.101 0 32.201 6.44 45.082 17.711l276.931 267.27c66.013-46.692 146.516-72.453 231.849-72.453 223.799 0 405.736 181.937 405.736 405.736s-181.937 405.736-405.736 405.736c-223.799 0-405.736-181.937-405.736-405.736 0-91.774 30.591-175.497 80.503-243.119l-273.711-264.050c-25.761-24.151-25.761-66.013-1.61-91.774zM618.264 277.333c-152.956 0-276.931 123.975-276.931 276.931s123.975 276.931 276.931 276.931 276.931-123.975 276.931-276.931-123.975-276.931-276.931-276.931zM476.579 493.082h289.811c35.421 0 64.403 28.981 64.403 64.403s-28.981 64.403-64.403 64.403h-289.811c-35.421 0-64.403-28.981-64.403-64.403s28.981-64.403 64.403-64.403z" />
<glyph unicode="&#xe90b;" glyph-name="evt_zoom-one" d="M17.711-44.679c12.881-12.881 28.981-19.321 46.692-19.321 16.101 0 32.201 6.44 45.082 17.711l276.931 267.27c66.013-46.692 146.516-72.453 231.849-72.453 223.799 0 405.736 181.937 405.736 405.736s-181.937 405.736-405.736 405.736c-223.799 0-405.736-181.937-405.736-405.736 0-91.774 30.591-175.497 80.503-243.119l-273.711-264.050c-25.761-24.151-25.761-66.013-1.61-91.774zM618.264 277.333c-152.956 0-276.931 123.975-276.931 276.931s123.975 276.931 276.931 276.931 276.931-123.975 276.931-276.931-123.975-276.931-276.931-276.931zM644.025 766.792c-27.371 0-49.912-16.101-59.572-38.642l-80.503-80.503c-19.321-19.321-19.321-49.912 0-67.623 9.66-9.66 22.541-14.491 33.811-14.491s24.151 4.83 33.811 14.491l6.44 6.44v-173.887c0-35.421 28.981-64.403 64.403-64.403s64.403 28.981 64.403 64.403v289.811c1.61 35.421-27.371 64.403-62.792 64.403z" />
<glyph unicode="&#xe90c;" glyph-name="evt_zoom-plus" d="M17.711-44.679c12.881-12.881 28.981-19.321 46.692-19.321 16.101 0 32.201 6.44 45.082 17.711l276.931 267.27c66.013-46.692 146.516-72.453 231.849-72.453 223.799 0 405.736 181.937 405.736 405.736s-181.937 405.736-405.736 405.736c-223.799 0-405.736-181.937-405.736-405.736 0-91.774 30.591-175.497 80.503-243.119l-273.711-264.050c-25.761-24.151-25.761-66.013-1.61-91.774zM618.264 277.333c-152.956 0-276.931 123.975-276.931 276.931s123.975 276.931 276.931 276.931 276.931-123.975 276.931-276.931-123.975-276.931-276.931-276.931zM476.579 621.887h86.943v80.503c0 35.421 28.981 64.403 64.403 64.403s64.403-28.981 64.403-64.403v-80.503h74.063c35.421 0 64.403-28.981 64.403-64.403s-28.981-64.403-64.403-64.403h-74.063v-80.503c0-35.421-28.981-64.403-64.403-64.403s-64.403 28.981-64.403 64.403v80.503h-86.943c-35.421 0-64.403 28.981-64.403 64.403s28.981 64.403 64.403 64.403z" />
<glyph unicode="&#xe90d;" glyph-name="evt_zoom" d="M17.711-44.679c12.881-12.881 28.981-19.321 46.692-19.321 16.101 0 32.201 6.44 45.082 17.711l276.931 267.27c66.013-46.692 146.516-72.453 231.849-72.453 223.799 0 405.736 181.937 405.736 405.736s-181.937 405.736-405.736 405.736c-223.799 0-405.736-181.937-405.736-405.736 0-91.774 30.591-175.497 80.503-243.119l-273.711-264.050c-25.761-24.151-25.761-66.013-1.61-91.774zM618.264 277.333c-152.956 0-276.931 123.975-276.931 276.931s123.975 276.931 276.931 276.931 276.931-123.975 276.931-276.931-123.975-276.931-276.931-276.931zM800.201 533.333c-1.61 0-1.61 0-3.22 0-22.541 1.61-38.642 20.931-37.031 43.472 1.61 28.981-9.66 59.572-32.201 82.113s-51.522 37.031-80.503 37.031c-22.541 0-40.252 17.711-40.252 40.252s17.711 40.252 40.252 40.252c51.522 0 101.434-22.541 138.465-62.792s56.352-91.774 53.132-143.296c0-20.931-17.711-37.031-38.642-37.031z" />
<glyph unicode="&#xe90e;" glyph-name="image" d="M959.884 832c0.040-0.034 0.082-0.076 0.116-0.116v-767.77c-0.034-0.040-0.076-0.082-0.116-0.116h-895.77c-0.040 0.034-0.082 0.076-0.114 0.116v767.772c0.034 0.040 0.076 0.082 0.114 0.114h895.77zM960 896h-896c-35.2 0-64-28.8-64-64v-768c0-35.2 28.8-64 64-64h896c35.2 0 64 28.8 64 64v768c0 35.2-28.8 64-64 64v0zM832 672c0-53.020-42.98-96-96-96s-96 42.98-96 96 42.98 96 96 96 96-42.98 96-96zM896 128h-768v128l224 384 256-320h64l224 192z" />
<glyph unicode="&#xe90f;" glyph-name="images" horiz-adv-x="1152" d="M1088 832h-64v64c0 35.2-28.8 64-64 64h-896c-35.2 0-64-28.8-64-64v-768c0-35.2 28.8-64 64-64h64v-64c0-35.2 28.8-64 64-64h896c35.2 0 64 28.8 64 64v768c0 35.2-28.8 64-64 64zM128 768v-640h-63.886c-0.040 0.034-0.082 0.076-0.114 0.116v767.77c0.034 0.040 0.076 0.082 0.114 0.114h895.77c0.040-0.034 0.082-0.076 0.116-0.116v-63.884h-768c-35.2 0-64-28.8-64-64v0zM1088 0.116c-0.034-0.040-0.076-0.082-0.116-0.116h-895.77c-0.040 0.034-0.082 0.076-0.114 0.116v767.77c0.034 0.040 0.076 0.082 0.114 0.114h895.77c0.040-0.034 0.082-0.076 0.116-0.116v-767.768zM960 608c0-53.020-42.98-96-96-96s-96 42.98-96 96 42.98 96 96 96 96-42.98 96-96zM1024 64h-768v128l224 384 256-320h64l224 192z" />
<glyph unicode="&#xe910;" glyph-name="book" d="M896 832v-832h-672c-53.026 0-96 42.98-96 96s42.974 96 96 96h608v768h-640c-70.398 0-128-57.6-128-128v-768c0-70.4 57.602-128 128-128h768v896h-64zM224.056 128v0c-0.018-0.002-0.038 0-0.056 0-17.672 0-32-14.326-32-32s14.328-32 32-32c0.018 0 0.038 0.002 0.056 0.002v-0.002h607.89v64h-607.89z" />
<glyph unicode="&#xe911;" glyph-name="books" horiz-adv-x="1152" d="M224 832h-192c-17.6 0-32-14.4-32-32v-704c0-17.6 14.4-32 32-32h192c17.6 0 32 14.4 32 32v704c0 17.6-14.4 32-32 32zM192 640h-128v64h128v-64zM544 832h-192c-17.6 0-32-14.4-32-32v-704c0-17.6 14.4-32 32-32h192c17.6 0 32 14.4 32 32v704c0 17.6-14.4 32-32 32zM512 640h-128v64h128v-64zM765.088 782.52l-171.464-86.394c-15.716-7.918-22.096-27.258-14.178-42.976l287.978-571.548c7.918-15.718 27.258-22.098 42.976-14.178l171.464 86.392c15.716 7.92 22.096 27.26 14.178 42.974l-287.978 571.55c-7.92 15.718-27.26 22.1-42.976 14.18z" />
<glyph unicode="&#xe912;" glyph-name="file-text" d="M864 960h-768c-52.8 0-96-43.2-96-96v-832c0-52.8 43.2-96 96-96h768c52.8 0 96 43.2 96 96v832c0 52.8-43.2 96-96 96zM832 64h-704v768h704v-768zM256 512h448v-64h-448zM256 384h448v-64h-448zM256 256h448v-64h-448zM256 640h448v-64h-448z" />
<glyph unicode="&#xe913;" glyph-name="price-tag" d="M976 960h-384c-26.4 0-63.274-15.274-81.942-33.942l-476.116-476.116c-18.668-18.668-18.668-49.214 0-67.882l412.118-412.118c18.668-18.668 49.214-18.668 67.882 0l476.118 476.118c18.666 18.666 33.94 55.54 33.94 81.94v384c0 26.4-21.6 48-48 48zM736 576c-53.020 0-96 42.98-96 96s42.98 96 96 96 96-42.98 96-96-42.98-96-96-96z" />
<glyph unicode="&#xe914;" glyph-name="price-tags" horiz-adv-x="1280" d="M1232 960h-384c-26.4 0-63.274-15.274-81.942-33.942l-476.116-476.116c-18.668-18.668-18.668-49.214 0-67.882l412.118-412.118c18.668-18.668 49.214-18.668 67.882 0l476.118 476.118c18.666 18.666 33.94 55.54 33.94 81.94v384c0 26.4-21.6 48-48 48zM992 576c-53.020 0-96 42.98-96 96s42.98 96 96 96 96-42.98 96-96-42.98-96-96-96zM128 416l544 544h-80c-26.4 0-63.274-15.274-81.942-33.942l-476.116-476.116c-18.668-18.668-18.668-49.214 0-67.882l412.118-412.118c18.668-18.668 49.214-18.668 67.882 0l30.058 30.058-416 416z" />
<glyph unicode="&#xe915;" glyph-name="pushpin" d="M544 960l-96-96 96-96-224-256h-224l176-176-272-360.616v-39.384h39.384l360.616 272 176-176v224l256 224 96-96 96 96-480 480zM448 416l-64 64 224 224 64-64-224-224z" />
<glyph unicode="&#xe916;" glyph-name="link" d="M440.236 324.234c-13.31 0-26.616 5.076-36.77 15.23-95.134 95.136-95.134 249.934 0 345.070l192 192c46.088 46.086 107.36 71.466 172.534 71.466s126.448-25.38 172.536-71.464c95.132-95.136 95.132-249.934 0-345.070l-87.766-87.766c-20.308-20.308-53.23-20.308-73.54 0-20.306 20.306-20.306 53.232 0 73.54l87.766 87.766c54.584 54.586 54.584 143.404 0 197.99-26.442 26.442-61.6 41.004-98.996 41.004s-72.552-14.562-98.996-41.006l-192-191.998c-54.586-54.586-54.586-143.406 0-197.992 20.308-20.306 20.306-53.232 0-73.54-10.15-10.152-23.462-15.23-36.768-15.23zM256-52c-65.176 0-126.45 25.38-172.534 71.464-95.134 95.136-95.134 249.934 0 345.070l87.764 87.764c20.308 20.306 53.234 20.306 73.54 0 20.308-20.306 20.308-53.232 0-73.54l-87.764-87.764c-54.586-54.586-54.586-143.406 0-197.992 26.44-26.44 61.598-41.002 98.994-41.002s72.552 14.562 98.998 41.006l192 191.998c54.584 54.586 54.584 143.406 0 197.992-20.308 20.308-20.306 53.232 0 73.54 20.306 20.306 53.232 20.306 73.54-0.002 95.132-95.134 95.132-249.932 0.002-345.068l-192.002-192c-46.090-46.088-107.364-71.466-172.538-71.466z" />
<glyph unicode="&#xe917;" glyph-name="bookmark" d="M192 960v-1024l320 320 320-320v1024z" />
<glyph unicode="&#xe918;" glyph-name="bookmarks" d="M256 832v-896l320 320 320-320v896zM768 960h-640v-896l64 64v768h576z" />
<glyph unicode="&#xe919;" glyph-name="sort-amount-desc" d="M320 192v768h-128v-768h-160l224-224 224 224h-160zM448 960h576v-128h-576v128zM448 768h448v-128h-448v128zM448 576h320v-128h-320v128zM448 384h192v-128h-192v128z" />
<glyph unicode="&#xe91a;" glyph-name="filter" d="M512 960c-282.77 0-512-71.634-512-160v-96l384-384v-320c0-35.346 57.306-64 128-64 70.692 0 128 28.654 128 64v320l384 384v96c0 88.366-229.23 160-512 160zM94.384 821.176c23.944 13.658 57.582 26.62 97.278 37.488 87.944 24.076 201.708 37.336 320.338 37.336 118.628 0 232.394-13.26 320.338-37.336 39.696-10.868 73.334-23.83 97.28-37.488 15.792-9.006 24.324-16.624 28.296-21.176-3.972-4.552-12.506-12.168-28.296-21.176-23.946-13.658-57.584-26.62-97.28-37.488-87.942-24.076-201.708-37.336-320.338-37.336s-232.394 13.26-320.338 37.336c-39.696 10.868-73.334 23.83-97.278 37.488-15.792 9.008-24.324 16.624-28.298 21.176 3.974 4.552 12.506 12.168 28.298 21.176z" />
<glyph unicode="&#xe91b;" glyph-name="font-size" d="M64 448h384v-128h-128v-384h-128v384h-128zM960 704h-251.75v-768h-136.5v768h-251.75v128h640z" />
<glyph unicode="&#xe91c;" glyph-name="insert-template" d="M384 768h128v-64h-128zM576 768h128v-64h-128zM896 768v-256h-192v64h128v128h-64v64zM320 576h128v-64h-128zM512 576h128v-64h-128zM192 704v-128h64v-64h-128v256h192v-64zM384 384h128v-64h-128zM576 384h128v-64h-128zM896 384v-256h-192v64h128v128h-64v64zM320 192h128v-64h-128zM512 192h128v-64h-128zM192 320v-128h64v-64h-128v256h192v-64zM960 896h-896v-896h896v896zM1024 960v0-1024h-1024v1024h1024z" />
<glyph unicode="&#xe91d;" glyph-name="plus" d="M992 576h-352v352c0 17.672-14.328 32-32 32h-192c-17.672 0-32-14.328-32-32v-352h-352c-17.672 0-32-14.328-32-32v-192c0-17.672 14.328-32 32-32h352v-352c0-17.672 14.328-32 32-32h192c17.672 0 32 14.328 32 32v352h352c17.672 0 32 14.328 32 32v192c0 17.672-14.328 32-32 32z" />
<glyph unicode="&#xe91e;" glyph-name="cross" d="M1014.662 137.34c-0.004 0.004-0.008 0.008-0.012 0.010l-310.644 310.65 310.644 310.65c0.004 0.004 0.008 0.006 0.012 0.010 3.344 3.346 5.762 7.254 7.312 11.416 4.246 11.376 1.824 24.682-7.324 33.83l-146.746 146.746c-9.148 9.146-22.45 11.566-33.828 7.32-4.16-1.55-8.070-3.968-11.418-7.31 0-0.004-0.004-0.006-0.008-0.010l-310.648-310.652-310.648 310.65c-0.004 0.004-0.006 0.006-0.010 0.010-3.346 3.342-7.254 5.76-11.414 7.31-11.38 4.248-24.682 1.826-33.83-7.32l-146.748-146.748c-9.148-9.148-11.568-22.452-7.322-33.828 1.552-4.16 3.97-8.072 7.312-11.416 0.004-0.002 0.006-0.006 0.010-0.010l310.65-310.648-310.65-310.652c-0.002-0.004-0.006-0.006-0.008-0.010-3.342-3.346-5.76-7.254-7.314-11.414-4.248-11.376-1.826-24.682 7.322-33.83l146.748-146.746c9.15-9.148 22.452-11.568 33.83-7.322 4.16 1.552 8.070 3.97 11.416 7.312 0.002 0.004 0.006 0.006 0.010 0.010l310.648 310.65 310.648-310.65c0.004-0.002 0.008-0.006 0.012-0.008 3.348-3.344 7.254-5.762 11.414-7.314 11.378-4.246 24.684-1.826 33.828 7.322l146.746 146.748c9.148 9.148 11.57 22.454 7.324 33.83-1.552 4.16-3.97 8.068-7.314 11.414z" />
</font>
</defs>
</svg>
